<svg xmlns="http://www.w3.org/2000/svg" shape-rendering="geometricPrecision" text-rendering="geometricPrecision" image-rendering="optimizeQuality" fill-rule="evenodd" clip-rule="evenodd" viewBox="0 0 394 511.98"><path d="M158.912 88.115c-7.903-23.315-15.02-46.892-21.026-70.838 22.398-24.583 108.964-21.316 133.86-.384l-23.05 54.803c12.396-16.286 16.563-22.97 23.958-32.043a71.446 71.446 0 018.787 6.814c6.557 5.936 12.412 12.495 13.597 21.638.768 5.929-.927 11.952-6.203 18.111l-52.884 61.595c-6.807-1.116-13.459-2.75-19.914-5.044 2.999-7.058 6.616-14.823 9.615-21.882l-19.253 20.795c-20.058-4.232-36.188-1.707-51.219 6.242l-53.632-64.366c-3.186-3.839-4.636-7.678-4.624-11.517.051-15.559 23.218-28.987 35.396-34.07l26.592 50.146zm7.284 239.596v-34.937c0-.24.194-.435.434-.435h17.332v-7.77c0-.24.194-.435.434-.435h8.164c.24 0 .435.195.435.435v7.871c5.817.44 10.44 2.369 13.842 5.191a19.281 19.281 0 016.362 9.935c1.003 3.768.888 7.836-.364 11.689-1.325 4.08-3.929 7.926-7.829 10.931 9.786 1.466 16.078 7.191 18.885 14.26 1.357 3.415 1.899 7.143 1.629 10.853a25.77 25.77 0 01-3.239 10.763c-4.385 7.786-13.123 13.733-26.176 13.734l-3.11.002v7.772a.435.435 0 01-.435.434h-8.164a.434.434 0 01-.434-.434v-7.772H166.63a.434.434 0 01-.434-.434v-51.653zm26.799-25.681v22.784c3.73-1.153 6.358-3.333 7.88-5.912a11.266 11.266 0 001.579-5.899 10.843 10.843 0 00-1.769-5.769c-1.547-2.363-4.112-4.283-7.69-5.204zm0 36.422v31.005l1.238.003c9.192.425 15.163-3.229 17.913-8.165a14.01 14.01 0 001.768-6.781 14.575 14.575 0 00-1.718-6.888c-2.823-5.297-9.127-9.401-18.925-9.176l-.276.002zm-9.033 31.005v-31.005h-6.539v31.005h6.539zm0-43.766v-24.229h-6.652v24.229h6.652zm43.677-121.282l-10.467-47.871c44.832 8.338 116.691 99.534 139.911 140.998 11.852 21.164 22.232 44.48 30.731 70.545 16.931 63.08.622 122.093-67.807 135.838-42.877 8.614-122.838 9.224-167.93 6.891-48.476-2.509-123.494-2.432-143.09-52.204-31.628-80.338 26.319-176.045 79.155-234.623 6.952-7.708 14.141-14.892 21.579-21.522 19.219-16.91 39.943-36.976 64.682-45.319l-23.895 44.495 34.705-46.011h18.288l24.138 48.783zm-119.957 88.228c25.48-47.867 84.932-66.014 132.799-40.535 47.867 25.48 66.014 84.932 40.535 132.799-25.48 47.867-84.932 66.014-132.799 40.535-47.868-25.48-66.014-84.932-40.535-132.799z"/></svg>